<svg width="383" height="383" viewBox="0 0 383 383" fill="none" xmlns="http://www.w3.org/2000/svg">
    <rect width="382" height="382" rx="18" transform="matrix(-1 0 0 1 382.078 0.515625)" fill="black"/>
    <path fill-rule="evenodd" clip-rule="evenodd" d="M106.402 173.185C106.402 194.272 89.3076 211.367 68.2206 211.367C47.1335 211.367 30.0391 194.272 30.0391 173.185C30.0391 152.098 47.1335 135.004 68.2206 135.004C89.3076 135.004 106.402 152.098 106.402 173.185ZM121.781 138.671V207.927C121.781 209.031 122.673 209.923 123.777 209.955C137.433 210.358 154.964 215.249 174.801 241.605C199.87 274.912 253.969 285.623 277.996 283.839C279.015 283.763 279.77 282.904 279.77 281.882V222.556C279.892 219.576 280.408 215.257 282.305 213.632C284.07 212.119 286.967 211.565 289.065 211.367H350.119C351.224 211.367 352.119 210.471 352.119 209.367V139.434C352.119 138.33 351.224 137.434 350.119 137.434H280.187C279.082 137.434 278.187 138.33 278.187 139.434V199.23C277.976 202.231 277.417 205.357 276.061 206.527C274.024 208.284 271.033 208.318 269.427 208.181C253.747 205.26 245.301 200.845 214.432 169.835C182.875 138.132 140.41 136.735 123.763 136.673C122.659 136.669 121.781 137.566 121.781 138.671Z" fill="url(#paint0_linear_0_1)"/>
    <defs>
        <linearGradient id="paint0_linear_0_1" x1="352.119" y1="209.515" x2="12.1003" y2="170.895" gradientUnits="userSpaceOnUse">
            <stop offset="0.08" stop-color="#FF8651"/>
            <stop offset="0.3" stop-color="#FFBEA8"/>
            <stop offset="0.945" stop-color="#A397F5"/>
        </linearGradient>
    </defs>
</svg>
